PathFileType	4	(X/Y/Z)	/Users/niels/Desktop/University/Third Semester/Perception and Action/Exam/Gymnastics Motion Tracking/Code for Gym Tracking/Analyzed Data/Webcam_Backflip/id2_1_trajectory_Sports2D/id2_1_trajectory_Sports2D_px_person00.trc
DataRate	CameraRate	NumFrames	NumMarkers	Units	OrigDataRate	OrigDataStartFrame	OrigNumFrames
29.702970297029704	29.702970297029704	12	22	m	29.702970297029704	25	101
Frame#	Time	Hip			RHip			RKnee			RAnkle			RBigToe			RSmallToe			RHeel			LHip			LKnee			LAnkle			LBigToe			LSmallToe			LHeel			Neck			Head			Nose			RShoulder			RElbow			RWrist			LShoulder			LElbow			LWrist		
		X1	Y1	Z1	X2	Y2	Z2	X3	Y3	Z3	X4	Y4	Z4	X5	Y5	Z5	X6	Y6	Z6	X7	Y7	Z7	X8	Y8	Z8	X9	Y9	Z9	X10	Y10	Z10	X11	Y11	Z11	X12	Y12	Z12	X13	Y13	Z13	X14	Y14	Z14	X15	Y15	Z15	X16	Y16	Z16	X17	Y17	Z17	X18	Y18	Z18	X19	Y19	Z19	X20	Y20	Z20	X21	Y21	Z21	X22	Y22	Z22
25	0.8416666666666666	0.7648978961769713	-0.6674150439729947	0.0	0.7583446992414954	-0.6667522513153007	0.0	0.7725684184896126	-0.7917449797460965	0.0	0.728502028200527	-0.9028998943067849	0.0	0.7599937650590534	-0.9321924632883086	0.0	0.7555117996899281	-0.94168215395097	0.0	0.7149012119168392	-0.9157179187816772	0.0	0.771545708983668	-0.6675418992445333	0.0	0.7767434267566408	-0.7897377035670974	0.0	0.740720987407739	-0.8988813666762444	0.0	0.7703261348018445	-0.9278304268789209	0.0	0.7644992850719253	-0.9194279340284622	0.0	0.7245592421551608	-0.91154586333542	0.0	0.8569125879308253	-0.5318024282863981	0.0	0.9132553754315547	-0.47387954946466465	0.0	0.9019245307824331	-0.5126153892246632	0.0	0.8430055398611108	-0.5404482253698734	0.0	0.9169787879672118	-0.5573274830306522	0.0	0.9846051080106457	-0.535189232316697	0.0	0.8562488022482996	-0.5371917132379376	0.0	0.9255918794445576	-0.5477215104584258	0.0	0.9911785333686457	-0.5294725375669603	0.0
26	0.8753333333333333	0.7637952798678487	-0.7007795823550513	0.0	0.7578504907516069	-0.7014506696168371	0.0	0.7801924039011205	-0.8227856247367229	0.0	0.7314570131504571	-0.9275319065520962	0.0	0.7616756441652143	-0.9555316673651743	0.0	0.7586577867474662	-0.9684184750172776	0.0	0.7177598937736941	-0.9392407492554491	0.0	0.7701397569318446	-0.7008307968177347	0.0	0.783009610178356	-0.8204039375548413	0.0	0.7396606066666418	-0.9229539370545474	0.0	0.7716366971488937	-0.9518088085941436	0.0	0.7646143156051394	-0.9411198309935496	0.0	0.7229401186129253	-0.9343287062387946	0.0	0.8401077086303207	-0.5536854642772452	0.0	0.8917157766375541	-0.4912239248123971	0.0	0.8841477934593642	-0.5299273603028322	0.0	0.8277957629903046	-0.5633224858973283	0.0	0.9082639445090407	-0.5603615443451657	0.0	0.9681678139409654	-0.5224142590623047	0.0	0.8398156945385239	-0.5588047141791248	0.0	0.9165025231239193	-0.5540132416473293	0.0	0.9791679017195323	-0.5215731045735295	0.0
27	0.9089999999999999	0.7632046396403046	-0.7219167537780573	0.0	0.7569886848438805	-0.723529742408146	0.0	0.7891675703465311	-0.8400500197757134	0.0	0.733192489921683	-0.9367657448796026	0.0	0.7610817982757832	-0.9652067891636908	0.0	0.7587491444156795	-0.9791577628438054	0.0	0.7186073051158939	-0.9471798980181394	0.0	0.7702075574496899	-0.7220068748768377	0.0	0.7912916903333586	-0.8372743284129102	0.0	0.7382411724815123	-0.9321373677042567	0.0	0.7704348715659737	-0.9623483104706922	0.0	0.7631008904462928	-0.9499520838915475	0.0	0.7208098280306545	-0.9421046171286819	0.0	0.8275484836160885	-0.5690439368176301	0.0	0.876500259392611	-0.5043813836055677	0.0	0.8709026602947485	-0.5429273607901467	0.0	0.8162224959786201	-0.5789305274385884	0.0	0.8976006753713354	-0.5606837047644728	0.0	0.9486531503178922	-0.5118154134272831	0.0	0.8285565550216805	-0.5742060096670039	0.0	0.9080441943967571	-0.558624742387402	0.0	0.9669121322468341	-0.517603266305786	0.0
28	0.9426666666666665	0.7631268022756823	-0.729914275858111	0.0	0.755866959247646	-0.7320308521451397	0.0	0.8000420674116068	-0.8426697196590474	0.0	0.7353661468592172	-0.9305736364735514	0.0	0.7596430886792827	-0.9605281792626078	0.0	0.7572742644411696	-0.9723755060066542	0.0	0.719181516724526	-0.9395047433434962	0.0	0.7716746205154341	-0.7299998781864838	0.0	0.8020142378151751	-0.8394484709426825	0.0	0.7381552136618343	-0.9262961463322175	0.0	0.7673982132272946	-0.9583544652979993	0.0	0.7608977034426961	-0.9458285706619884	0.0	0.7199900787217256	-0.9347803003390097	0.0	0.8192154048980836	-0.5754369273863282	0.0	0.8677527760900762	-0.5100323660409232	0.0	0.8625460320601737	-0.5486896778550068	0.0	0.8083227788225794	-0.5848910297036406	0.0	0.8876140457309039	-0.5575020386081636	0.0	0.9313803706072175	-0.5027222539507612	0.0	0.8223711226181286	-0.5808702208976124	0.0	0.9014930677359861	-0.5596631175944365	0.0	0.957369503726286	-0.5152711102090297	0.0
29	0.9763333333333333	0.763830631115978	-0.7256258781431209	0.0	0.7551621914274476	-0.7279056635521741	0.0	0.812564347686974	-0.8319929114432026	0.0	0.7389251870260878	-0.9111634017367158	0.0	0.7587798618803401	-0.9432887800906454	0.0	0.7558714964368444	-0.9510049090560904	0.0	0.7206887332232575	-0.9185356280778093	0.0	0.7743627987586903	-0.7256220863340744	0.0	0.8147532401761133	-0.8283909615320446	0.0	0.7402370186810286	-0.907537429991439	0.0	0.7640769392870128	-0.9414442563293929	0.0	0.7592900415544017	-0.9306199136483011	0.0	0.7212887883892065	-0.9145988009771883	0.0	0.814445535526272	-0.5722087205075589	0.0	0.8644081410504971	-0.5068961186661153	0.0	0.8584204024701033	-0.545882297826823	0.0	0.8036881563780282	-0.5805437149528799	0.0	0.88013877043636	-0.550145660983415	0.0	0.9196906425173359	-0.4939253614509977	0.0	0.820042839010445	-0.5779154599347247	0.0	0.8971731827158256	-0.5556863029292621	0.0	0.9516830908359056	-0.5118461733807131	0.0
30	1.01	0.7656669760029509	-0.7113497942428282	0.0	0.7555879220100187	-0.713602059233931	0.0	0.8257173112708266	-0.8112935712272554	0.0	0.7440634165807776	-0.8829442810558346	0.0	0.7597551373771132	-0.917895303772824	0.0	0.7560080750578734	-0.9212849599792378	0.0	0.723809569553697	-0.8889270528667795	0.0	0.7781039787731646	-0.7112172995834932	0.0	0.8284468252516135	-0.8075321553680906	0.0	0.7448151782086453	-0.8800956786892256	0.0	0.7628153497829456	-0.9161821919157128	0.0	0.7599613781114343	-0.9078217854245823	0.0	0.7250042369006516	-0.886006221461091	0.0	0.812388873123239	-0.5603437174598276	0.0	0.8647110949106306	-0.4954400381646462	0.0	0.8573908246940584	-0.5348196201162901	0.0	0.8015570239257308	-0.5668889825070961	0.0	0.8754865005590045	-0.5382453573295615	0.0	0.9140604281083975	-0.48407428819336046	0.0	0.8202981249003147	-0.566200033074502	0.0	0.8948828535189403	-0.5462926389045604	0.0	0.9497542840101373	-0.5054242735936483	0.0
31	1.0436666666666665	0.7688467008522583	-0.6901966932244747	0.0	0.7575881854851859	-0.6923792520403435	0.0	0.8382726824209902	-0.784934327334119	0.0	0.7506728473122399	-0.8516247230492391	0.0	0.7635789888526819	-0.8899610850569017	0.0	0.7588051072977292	-0.8899328468181994	0.0	0.7289145940699663	-0.8566363044735664	0.0	0.782703701535185	-0.6899728434920446	0.0	0.8415849938730744	-0.7813235311861516	0.0	0.7517799665018702	-0.8495247010204248	0.0	0.7655124436284758	-0.8884546152760995	0.0	0.7641930342093993	-0.8819053814740613	0.0	0.7310802393308894	-0.8547079092082177	0.0	0.8122750350389124	-0.5419259015180675	0.0	0.8668584642075658	-0.47731284329571244	0.0	0.8582909449076574	-0.5170457780026215	0.0	0.8010598469840674	-0.5461877591491264	0.0	0.8727387439126915	-0.5219547363011551	0.0	0.9127566514217269	-0.4721034496563785	0.0	0.8222589982672617	-0.5478593091822193	0.0	0.8942383722492752	-0.5321082747790415	0.0	0.9507730782179518	-0.4952840601489222	0.0
32	1.0773333333333333	0.7733521738111486	-0.6654314685916756	0.0	0.761278758554446	-0.6676168060729158	0.0	0.8492802375326316	-0.7571947033998184	0.0	0.7588652118861816	-0.8227091347402424	0.0	0.7710837780291515	-0.8643478842208314	0.0	0.7650969429533739	-0.8622056711257847	0.0	0.7363372746800211	-0.8274315499349788	0.0	0.7879424616953047	-0.6652265055077847	0.0	0.8524708543908321	-0.7540945288475734	0.0	0.7605643394663809	-0.8213613074655722	0.0	0.7727511570637987	-0.8633849867538701	0.0	0.7722807263651801	-0.8574072416731133	0.0	0.7391411153369262	-0.8263708518860821	0.0	0.8135413201269206	-0.5195008266165145	0.0	0.8695026965732158	-0.45475482137723755	0.0	0.8601939661796303	-0.494705433561584	0.0	0.8015146823582351	-0.5214088896289187	0.0	0.8706458144220015	-0.5021156017545206	0.0	0.9131691924027804	-0.4575307018903021	0.0	0.8253636115772572	-0.5255817674657289	0.0	0.8948502765337569	-0.5145181779167768	0.0	0.9536597908721017	-0.48173934786365574	0.0
33	1.111	0.7789963391814277	-0.6399963614415349	0.0	0.7665024662549799	-0.6422621552567789	0.0	0.8582778865138981	-0.7312773473806913	0.0	0.7691998198778961	-0.8000518494362948	0.0	0.7830346910720585	-0.844032538788167	0.0	0.7755960605152962	-0.8411174157414332	0.0	0.7466972801213198	-0.8054231185540962	0.0	0.793659602265997	-0.6399242803280885	0.0	0.8596615539677861	-0.7291999559076553	0.0	0.7702523956664785	-0.7996870131558865	0.0	0.7837516826954404	-0.8441787567414838	0.0	0.7834513673921911	-0.8378108169498064	0.0	0.7485986010687384	-0.8052213224380745	0.0	0.8158622330736319	-0.4955664584949804	0.0	0.8718074282716914	-0.4300853239426028	0.0	0.8625368456278232	-0.4700302671769699	0.0	0.8025562997453548	-0.49560058023398457	0.0	0.8681093301189459	-0.4801931910873311	0.0	0.912887926576462	-0.44060530317795127	0.0	0.8292519735697353	-0.5019847920906113	0.0	0.8963490781664856	-0.49531880879258794	0.0	0.9574459495170065	-0.46592559933777694	0.0
34	1.1446666666666665	0.7854964032554409	-0.6162293388540252	0.0	0.7728905086233707	-0.618529424773461	0.0	0.8653309377075552	-0.7089636795538569	0.0	0.7824707223543134	-0.7850810336976323	0.0	0.7998629963931569	-0.8298172903027785	0.0	0.79076315213328	-0.8272574621017351	0.0	0.7608727734247448	-0.7921218819369409	0.0	0.7997500638279197	-0.6163189599185377	0.0	0.862430290422106	-0.7087674861952571	0.0	0.7796390000019476	-0.786179148697736	0.0	0.7964971848425488	-0.8317879342887265	0.0	0.7958702685426321	-0.8246671015481988	0.0	0.7585440231122529	-0.7929807845601772	0.0	0.8190703688187793	-0.47224077252421315	0.0	0.8732611011655279	-0.40540120635779076	0.0	0.865090153076339	-0.4451149602388006	0.0	0.8040450502529272	-0.47131020109739946	0.0	0.8642471669976958	-0.4581003502621409	0.0	0.910273763680099	-0.42231485480180553	0.0	0.8337898422410286	-0.4792119330535138	0.0	0.8984316628040658	-0.47631815004685735	0.0	0.9614998468688726	-0.4494891809427275	0.0
35	1.1783333333333332	0.792525490900757	-0.5957447021879821	0.0	0.7799461942103282	-0.5978954682538122	0.0	0.8709043741940306	-0.6909299560078822	0.0	0.7991830739141083	-0.777033825084093	0.0	0.821129853346973	-0.8206772324525371	0.0	0.8103767719893283	-0.8192679337260644	0.0	0.7794256614693407	-0.786522298285436	0.0	0.8061341131408736	-0.595943705907658	0.0	0.8609796587007587	-0.6938623180224687	0.0	0.7873177240549627	-0.7801322949046517	0.0	0.8081526012004279	-0.8252449025777836	0.0	0.8069467673972025	-0.8175194154873694	0.0	0.7675817174633864	-0.7887646981424107	0.0	0.823035277692052	-0.451131109837161	0.0	0.8736057516345075	-0.3824813317773521	0.0	0.8678004659247555	-0.4218532462594277	0.0	0.8059083296275551	-0.45030198907892727	0.0	0.8584937799444555	-0.43802579620368626	0.0	0.9045759596117675	-0.4042416666207133	0.0	0.8390594765971053	-0.4587860870274019	0.0	0.9009832050208474	-0.45906966966304646	0.0	0.96554583224138	-0.43420112665010346	0.0
36	1.212	0.7997929066513264	-0.5794765744232534	0.0	0.7871825781909962	-0.5812566412383039	0.0	0.8755258809217549	-0.6772788134446502	0.0	0.8191090082812037	-0.774014666325733	0.0	0.8453934809801134	-0.814791390539522	0.0	0.8333643082366622	-0.8149693677639649	0.0	0.8020387143758443	-0.7861820858931878	0.0	0.8127929463434558	-0.5797261487368902	0.0	0.8562936299438957	-0.6845956476585453	0.0	0.7922018730330037	-0.7793896754989479	0.0	0.8162337811680724	-0.8226292069830757	0.0	0.8144216054101246	-0.8147063560869221	0.0	0.774316329116927	-0.7900391011616407	0.0	0.8275865212040818	-0.4333836076682465	0.0	0.8728845638525861	-0.36275242787434475	0.0	0.8705678417340205	-0.40183347503144146	0.0	0.808064350289505	-0.4336134742272683	0.0	0.8507312104081354	-0.4222382529663819	0.0	0.8957348118403228	-0.38834241335357467	0.0	0.845170327638975	-0.4417051023654906	0.0	0.9040820259745321	-0.4448695817807463	0.0	0.9694852402425044	-0.42174415496799367	0.0
